<svg width="92" height="92" viewBox="0 0 92 92" fill="none" xmlns="http://www.w3.org/2000/svg">
<rect x="1" y="0.979492" width="90" height="90" rx="4.5" fill="white"/>
<rect x="1" y="0.979492" width="90" height="90" rx="4.5" stroke="#E8E8E8" stroke-dasharray="3.2 3.2"/>
<path d="M16.364 66.4959V69.2559H17.492V67.5519H25.472V69.2559H26.66V66.4959H16.364ZM19.316 68.8599V69.8439H24.74V68.8599H19.316ZM18.956 71.1039V72.0999H23.924V71.1039H18.956ZM16.124 73.3239V74.3679H26.9V73.3239H16.124ZM23.624 71.1039V71.2839C23.384 74.2359 23.108 75.5319 22.724 75.8679C22.568 75.9879 22.412 76.0119 22.148 76.0119C21.836 76.0119 21.02 75.9999 20.204 75.9279C20.408 76.2279 20.564 76.6839 20.588 76.9959C21.368 77.0439 22.136 77.0439 22.556 77.0199C23.048 76.9839 23.36 76.8879 23.672 76.5639C24.164 76.0839 24.452 74.7879 24.716 71.5959C24.74 71.4399 24.764 71.1039 24.764 71.1039H23.624ZM19.016 67.5759C18.764 69.1119 18.332 71.1519 17.984 72.3879L19.136 72.4839C19.448 71.2719 19.88 69.2559 20.156 67.6839L19.016 67.5759ZM34.484 75.5919C35.816 76.0599 37.172 76.6359 37.988 77.0439L38.948 76.2879C38.048 75.8799 36.56 75.3159 35.228 74.8719L34.484 75.5919ZM28.16 73.8519V74.7999H38.84V73.8519H28.16ZM28.508 66.8319V67.7919H38.564V66.8319H28.508ZM32.876 65.8719V68.8599H34.064V65.8719H32.876ZM31.04 70.5159H36.116V71.1879H31.04V70.5159ZM31.04 71.8599H36.116V72.5559H31.04V71.8599ZM31.04 69.1719H36.116V69.8319H31.04V69.1719ZM29.948 68.4519V73.2519H37.268V68.4519H29.948ZM31.58 74.9079C30.824 75.3999 29.336 75.9639 28.136 76.2639C28.376 76.4799 28.724 76.8279 28.904 77.0439C30.092 76.7439 31.604 76.1439 32.552 75.5679L31.58 74.9079ZM45.152 66.4719L43.904 66.3639C43.868 66.9519 43.712 67.6719 43.46 68.3319C43.016 69.4839 42.164 70.8279 40.508 72.3879L41.528 73.1439C41.936 72.6399 42.272 72.2079 42.632 71.8599C43.136 71.3919 43.892 71.0079 44.612 71.0079C45.188 71.0079 45.668 71.2959 45.668 72.0279C45.68 72.6519 45.668 73.8039 45.62 74.4039H46.772C46.76 73.6599 46.724 72.3039 46.724 71.6799C46.724 70.6359 45.992 70.0719 45.032 70.0719C44.564 70.0719 43.892 70.2039 43.496 70.4199C43.904 69.8559 44.312 69.0999 44.588 68.4399C44.912 67.5999 45.056 66.9279 45.152 66.4719ZM40.868 67.6839V68.7999C41.528 68.8479 42.356 68.8719 42.86 68.8719C44.36 68.8719 46.676 68.7759 48.356 68.5239L48.368 67.4199C46.652 67.7199 44.528 67.8159 42.932 67.8159C42.356 67.8159 41.492 67.7679 40.868 67.6839ZM50.18 70.8039L49.7 69.6879C49.316 69.8919 48.968 70.0479 48.56 70.2279C47.792 70.5759 46.916 70.9119 45.8 71.4999C44.36 72.2319 42.776 73.1679 42.776 74.7159C42.776 76.2159 44.156 76.6239 45.944 76.6239C47.024 76.6239 48.416 76.5279 49.28 76.4199L49.316 75.1959C48.26 75.3879 46.952 75.5079 45.98 75.5079C44.768 75.5079 44 75.3519 44 74.5359C44 73.7799 44.732 73.1919 45.872 72.5919C47.024 72.0039 48.14 71.5599 48.956 71.2359C49.316 71.1039 49.844 70.8999 50.18 70.8039ZM54.716 70.5999H52.052V71.6559H53.612V74.9199H54.716V70.5999ZM54.716 74.4279H53.684C53.096 74.9079 52.412 75.3879 51.848 75.7479L52.424 76.9239C53.072 76.3959 53.66 75.9039 54.212 75.4119C54.992 76.3479 56.036 76.7439 57.56 76.8039C58.94 76.8519 61.388 76.8279 62.768 76.7679C62.816 76.4319 63.008 75.8799 63.128 75.6159C61.628 75.7239 58.916 75.7599 57.572 75.6999C56.24 75.6519 55.244 75.2679 54.716 74.4279ZM52.136 66.8559C52.892 67.3959 53.768 68.1999 54.14 68.7759L55.04 68.0199C54.62 67.4439 53.732 66.6759 52.976 66.1719L52.136 66.8559ZM56.504 67.1079V68.0439H60.692V69.4119H56.504V70.3599H61.796V67.1079H56.504ZM58.292 65.8599C58.196 66.3399 57.992 67.0119 57.812 67.4799L58.88 67.6959C59.084 67.2759 59.36 66.6639 59.612 66.0399L58.292 65.8599ZM55.952 67.1079V74.8479H57.056V67.1079H55.952ZM56.576 71.3559V72.3039H61.16V73.8879H56.576V74.8479H62.276V71.3559H56.576ZM70.796 74.8599V75.9519H73.976V74.8599H70.796ZM64.112 68.1039V69.2199H68.636V68.1039H64.112ZM70.292 67.3239V76.8159H71.384V68.4279H73.364V76.7319H74.504V67.3239H70.292ZM68.348 68.1039V68.3679C68.252 73.3839 68.156 75.1359 67.892 75.4959C67.784 75.6639 67.664 75.7119 67.484 75.6999C67.268 75.6999 66.788 75.6999 66.26 75.6519C66.452 75.9759 66.572 76.4679 66.584 76.7919C67.136 76.8279 67.676 76.8279 68.024 76.7679C68.396 76.7079 68.636 76.5879 68.876 76.2399C69.26 75.6999 69.344 73.8999 69.44 68.6559C69.44 68.4999 69.44 68.1039 69.44 68.1039H68.348ZM65.696 66.0519C65.684 70.3359 65.732 74.1159 63.788 76.2279C64.076 76.3959 64.46 76.7679 64.64 77.0319C66.74 74.7039 66.8 70.6119 66.812 66.0519H65.696Z" fill="#9C9896"/>
<path d="M39.5108 46.2306L40.35 46.9372L39.5108 46.2306ZM43.9885 46.2306L43.1493 46.9372L43.9885 46.2306ZM44.2608 46.4599L45.1 45.7532L44.2608 46.4599ZM48.7385 46.4599L47.8993 45.7532L48.7385 46.4599ZM52.1775 43.5639L51.3383 42.8572L52.1775 43.5639ZM56.6552 43.5639L57.4943 42.8572L56.6552 43.5639ZM35.4163 33.3452H57.583V31.3452H35.4163V33.3452ZM57.9788 33.6786V52.3452H60.3538V33.6786H57.9788ZM57.583 52.6786H35.4163V54.6786H57.583V52.6786ZM35.0205 52.3452V33.6786H32.6455V52.3452H35.0205ZM35.4163 52.6786C35.3114 52.6786 35.2107 52.6435 35.1364 52.5809C35.0622 52.5184 35.0205 52.4337 35.0205 52.3452H32.6455C32.6455 53.6332 33.8868 54.6786 35.4163 54.6786V52.6786ZM57.9788 52.3452C57.9788 52.4337 57.9371 52.5184 57.8629 52.5809C57.7887 52.6435 57.688 52.6786 57.583 52.6786V54.6786C58.3179 54.6786 59.0226 54.4327 59.5423 53.9952C60.0619 53.5576 60.3538 52.9641 60.3538 52.3452H57.9788ZM57.583 33.3452C57.688 33.3452 57.7887 33.3804 57.8629 33.4429C57.9371 33.5054 57.9788 33.5902 57.9788 33.6786H60.3538C60.3538 33.0597 60.0619 32.4662 59.5423 32.0287C59.0226 31.5911 58.3179 31.3452 57.583 31.3452V33.3452ZM35.4163 31.3452C34.6815 31.3452 33.9767 31.5911 33.4571 32.0287C32.9374 32.4662 32.6455 33.0597 32.6455 33.6786H35.0205C35.0205 33.5902 35.0622 33.5054 35.1364 33.4429C35.2107 33.3804 35.3114 33.3452 35.4163 33.3452V31.3452ZM34.6722 51.7186L40.35 46.9372L38.6717 45.5239L32.9938 50.3052L34.6722 51.7186ZM43.1493 46.9372L43.4201 47.1666L45.1 45.7532L44.8293 45.5239L43.1493 46.9372ZM49.5777 47.1666L53.0167 44.2719L51.3383 42.8572L47.8993 45.7519L49.5777 47.1666ZM55.816 44.2719L58.3272 46.3852L60.0055 44.9719L57.4959 42.8572L55.816 44.2706V44.2719ZM53.0167 44.2719C53.2005 44.1171 53.4187 43.9943 53.6588 43.9105C53.899 43.8267 54.1564 43.7836 54.4163 43.7836C54.6763 43.7836 54.9337 43.8267 55.1739 43.9105C55.414 43.9943 55.6322 44.1171 55.816 44.2719L57.4943 42.8572C56.6778 42.1701 55.5707 41.784 54.4163 41.784C53.262 41.784 52.1548 42.1701 51.3383 42.8572L53.0167 44.2706V44.2719ZM43.4217 47.1666C44.2382 47.8542 45.3457 48.2405 46.5005 48.2405C47.6552 48.2405 48.7627 47.8542 49.5793 47.1666L47.8993 45.7532C47.7155 45.9081 47.4973 46.0309 47.2572 46.1146C47.017 46.1984 46.7596 46.2416 46.4997 46.2416C46.2397 46.2416 45.9823 46.1984 45.7422 46.1146C45.502 46.0309 45.2838 45.9081 45.1 45.7532L43.4217 47.1666ZM40.35 46.9386C40.5338 46.7838 40.752 46.661 40.9922 46.5772C41.2323 46.4934 41.4897 46.4503 41.7497 46.4503C42.0096 46.4503 42.267 46.4934 42.5072 46.5772C42.7473 46.661 42.9656 46.7838 43.1493 46.9386L44.8277 45.5239C44.0111 44.8363 42.9036 44.45 41.7489 44.45C40.5941 44.45 39.4866 44.8363 38.6701 45.5239L40.35 46.9372V46.9386ZM43.2396 38.8066C43.2396 39.6132 42.4622 40.2679 41.5043 40.2679V42.2679C42.5943 42.2676 43.6395 41.9028 44.4102 41.2537C45.181 40.6047 45.6142 39.7245 45.6146 38.8066H43.2396ZM41.5043 40.2679C40.5479 40.2679 39.7705 39.6146 39.7705 38.8066H37.3955C37.3955 39.7243 37.8283 40.6046 38.5988 41.2536C39.3693 41.9027 40.4144 42.2676 41.5043 42.2679V40.2679ZM39.7705 38.8066C39.7705 37.9999 40.5479 37.3452 41.5043 37.3452V35.3452C40.4144 35.3456 39.3693 35.7104 38.5988 36.3595C37.8283 37.0086 37.3955 37.8888 37.3955 38.8066H39.7705ZM41.5043 37.3452C42.4622 37.3452 43.2396 37.9999 43.2396 38.8066H45.6146C45.6142 37.8887 45.181 37.0085 44.4102 36.3594C43.6395 35.7104 42.5943 35.3456 41.5043 35.3452V37.3452Z" fill="#9C9896"/>
</svg>
