<svg width="22" height="26" viewBox="0 0 22 26" fill="none" xmlns="http://www.w3.org/2000/svg">
<path d="M13.0176 20.1664L7.81756 13.7664C7.64422 13.5531 7.55756 13.3397 7.55756 13.0197C7.55756 12.6997 7.64422 12.4864 7.81756 12.2731L13.0176 5.87307C13.3642 5.4464 13.8842 5.4464 14.2309 5.87307C14.5776 6.29974 14.5776 6.93974 14.2309 7.3664L9.63756 13.0197L14.2309 18.6731C14.5776 19.0997 14.5776 19.7397 14.2309 20.1664C13.8842 20.5931 13.3642 20.5931 13.0176 20.1664Z" fill="black"/>
<mask id="mask0_6_699" style="mask-type:luminance" maskUnits="userSpaceOnUse" x="7" y="5" width="8" height="16">
<path d="M13.0176 20.1664L7.81756 13.7664C7.64422 13.5531 7.55756 13.3397 7.55756 13.0197C7.55756 12.6997 7.64422 12.4864 7.81756 12.2731L13.0176 5.87307C13.3642 5.4464 13.8842 5.4464 14.2309 5.87307C14.5776 6.29974 14.5776 6.93974 14.2309 7.3664L9.63756 13.0197L14.2309 18.6731C14.5776 19.0997 14.5776 19.7397 14.2309 20.1664C13.8842 20.5931 13.3642 20.5931 13.0176 20.1664Z" fill="white"/>
</mask>
<g mask="url(#mask0_6_699)">
<rect x="21.4242" y="0.219727" width="25.6" height="20.8" transform="rotate(90 21.4242 0.219727)" fill="#B8B8B8"/>
</g>
</svg>
