<svg width="20" height="21" viewBox="0 0 20 21" fill="none" xmlns="http://www.w3.org/2000/svg">
<path d="M13.71 11.21C14.6904 10.4387 15.406 9.38092 15.7572 8.18394C16.1085 6.98697 16.0779 5.71027 15.6698 4.53147C15.2617 3.35267 14.4963 2.33039 13.4801 1.60686C12.4639 0.883322 11.2474 0.494507 10 0.494507C8.75255 0.494507 7.53611 0.883322 6.51993 1.60686C5.50374 2.33039 4.73834 3.35267 4.33021 4.53147C3.92208 5.71027 3.89151 6.98697 4.24276 8.18394C4.59401 9.38092 5.3096 10.4387 6.29 11.21C4.61007 11.883 3.14428 12.9994 2.04889 14.4399C0.953495 15.8805 0.26956 17.5913 0.0699967 19.39C0.0555513 19.5213 0.0671132 19.6542 0.104022 19.7811C0.140931 19.9079 0.202464 20.0263 0.285108 20.1293C0.452016 20.3375 0.69478 20.4708 0.959997 20.5C1.22521 20.5292 1.49116 20.4518 1.69932 20.2849C1.90749 20.118 2.04082 19.8752 2.07 19.61C2.28958 17.6552 3.22168 15.8498 4.68822 14.5388C6.15475 13.2278 8.0529 12.503 10.02 12.503C11.9871 12.503 13.8852 13.2278 15.3518 14.5388C16.8183 15.8498 17.7504 17.6552 17.97 19.61C17.9972 19.8557 18.1144 20.0827 18.2991 20.247C18.4838 20.4114 18.7228 20.5015 18.97 20.5H19.08C19.3421 20.4698 19.5817 20.3373 19.7466 20.1313C19.9114 19.9252 19.9881 19.6624 19.96 19.4C19.7595 17.5962 19.0719 15.881 17.9708 14.4382C16.8698 12.9954 15.3969 11.8795 13.71 11.21ZM10 10.5C9.20887 10.5 8.43551 10.2654 7.77772 9.82588C7.11992 9.38636 6.60723 8.76164 6.30448 8.03074C6.00173 7.29983 5.92251 6.49557 6.07686 5.71964C6.2312 4.94372 6.61216 4.23099 7.17157 3.67158C7.73098 3.11217 8.44371 2.7312 9.21964 2.57686C9.99556 2.42252 10.7998 2.50173 11.5307 2.80448C12.2616 3.10724 12.8863 3.61993 13.3259 4.27772C13.7654 4.93552 14 5.70888 14 6.5C14 7.56087 13.5786 8.57828 12.8284 9.32843C12.0783 10.0786 11.0609 10.5 10 10.5Z" fill="#303030"/>
</svg>
